<svg id="Capa_1" enable-background="new 0 0 511.365 511.365" height="512" viewBox="0 0 511.365 511.365" width="512" xmlns="http://www.w3.org/2000/svg"><path d="m331.986 333.854h67.128v55.281h-67.128z" fill="#e5eef8"/><path d="m383.446 354.816h15.667v-20.963h-67.128v55.281h18.132v-.99c.001-18.406 14.923-33.328 33.329-33.328z" fill="#d5e2f3"/><path d="m308.786 415.597h106.681c2.332 0 4.222-1.89 4.222-4.222v-15.615c0-6.591-5.343-11.934-11.934-11.934h-82.01-16.958v31.771z" fill="#99bce4"/><path d="m308.524 339.163h183.941c6.296 0 11.4-5.104 11.4-11.4v-170.687c0-11.717-9.498-21.215-21.215-21.215h-40.229-156.369-37.603c-11.717 0-21.215 9.498-21.215 21.215v71.322 110.765z" fill="#e5eef8"/><path d="m326.524 251.512c0-22.67-18.443-41.113-41.113-41.113h-58.176v18 110.765h81.29 18v-87.652z" fill="#d5e2f3"/><path d="m430.373 198.294c16.842-11.907 29.394-25.462 35.377-32.482 7.303-8.57 8.257-20.495 2.879-29.951h-26.207-156.37-26.207c-5.378 9.455-4.424 21.381 2.879 29.95 5.983 7.02 18.535 20.576 35.377 32.483 22.048 15.588 44.299 23.491 66.136 23.491 21.836.001 44.088-7.903 66.136-23.491z" fill="#d5e2f3"/><path d="m227.235 300.078v39.085h81.29 183.941c6.296 0 11.4-5.104 11.4-11.4v-27.685z" fill="#c5e1ff"/><path d="m308.524 276.109h167.608c1.509 0 2.732-1.223 2.732-2.732v-109.783c0-1.509-1.223-2.732-2.732-2.732h-32.906-157.98-30.28c-1.509 0-2.732 1.223-2.732 2.732v64.805 44.978c0 1.509 1.223 2.732 2.732 2.732z" fill="#05f2a7"/><path d="m443.227 160.861h-157.98-25.857c.906 1.736 2.013 3.399 3.334 4.95 5.983 7.02 18.535 20.576 35.377 32.483 22.048 15.588 44.299 23.491 66.136 23.491 21.836 0 44.088-7.903 66.136-23.491 16.842-11.907 29.394-25.462 35.377-32.482 1.322-1.551 2.429-3.214 3.335-4.951z" fill="#13e29d"/><path d="m326.524 276.109v-24.597c0-22.67-18.443-41.113-41.113-41.113h-33.176v18 44.978c0 1.509 1.223 2.732 2.732 2.732h53.557z" fill="#13e29d"/><path d="m64.815 289.051v107.774h243.709v-145.313c0-12.765-10.348-23.113-23.113-23.113h-121.722-98.874z" fill="#e5eef8"/><path d="m153.502 309.051c16.645 0 30.186-13.542 30.186-30.186v-50.467h-20-98.873v60.653 20z" fill="#d5e2f3"/><path d="m325.471 383.825h-277.602c-1.808 0-3.273 1.465-3.273 3.273v11.541c0 9.366 7.592 16.958 16.958 16.958h250.232c9.366 0 16.958-7.592 16.958-16.958v-11.541c0-1.807-1.466-3.273-3.273-3.273z" fill="#c5e1ff"/><path d="m163.689 253.398h118.037c.993 0 1.799.805 1.799 1.799v101.829c0 .993-.805 1.799-1.799 1.799h-190.112c-.993 0-1.799-.805-1.799-1.799v-67.975-33.854c0-.993.805-1.799 1.799-1.799z" fill="#65daf9"/><path d="m183.323 336.427c-19.878 0-37.686-8.822-49.749-22.757-1.563-1.805-.256-4.619 2.132-4.619h17.796c16.671 0 30.186-13.515 30.186-30.186v-25.467h-20-46.169-25.905-1.799v1.799 33.854 20 47.975c0 .993.805 1.799 1.799 1.799h190.112c.993 0 1.799-.805 1.799-1.799v-20.599z" fill="#1acff8"/><path d="m163.689 253.398h-72.075c-.993 0-1.799.805-1.799 1.799v33.854 20h63.687c16.645 0 30.186-13.542 30.186-30.186v-25.467z" fill="#1acff8"/><path d="m153.502 289.051h-135.816c-5.626 0-10.186-4.56-10.186-10.186v-95.729c0-5.626 4.56-10.186 10.186-10.186h135.816c5.626 0 10.186 4.56 10.186 10.186v95.729c.001 5.626-4.56 10.186-10.186 10.186z" fill="#e5eef8"/><path d="m128.151 259.836c-47.986 0-86.886-38.9-86.886-86.886h-23.579c-5.626 0-10.186 4.56-10.186 10.186v95.729c0 5.626 4.56 10.186 10.186 10.186h135.816c5.626 0 10.186-4.56 10.186-10.186v-19.029z" fill="#d5e2f3"/><path d="m153.502 172.95h-135.816c-5.626 0-10.186 4.56-10.186 10.186v21.638h156.188v-21.638c.001-5.625-4.56-10.186-10.186-10.186z" fill="#fd6773"/><path d="m41.265 172.95h-23.579c-3.868 0-7.232 2.156-8.957 5.331-.784 1.443-1.229 3.097-1.229 4.855v21.638h39.779c-3.882-9.855-6.014-20.59-6.014-31.824z" fill="#fc4d5a"/><path d="m110.857 263.306h-50.518c-2.123 0-3.844-1.721-3.844-3.844v-27.433c0-2.123 1.721-3.844 3.844-3.844h50.518c2.123 0 3.844 1.721 3.844 3.844v27.433c0 2.123-1.721 3.844-3.844 3.844z" fill="#c5e1ff"/><path d="m56.495 232.029v27.433c0 2.123 1.721 3.844 3.844 3.844h50.518c2.123 0 3.844-1.721 3.844-3.844v-.663c-21.496-3.341-40.385-14.559-53.621-30.614h-.74c-2.124 0-3.845 1.721-3.845 3.844z" fill="#b4d9fd"/><path d="m450.528 144.715c2.062 2.42 2.062 5.705 0 8.124-10.571 12.404-45.201 48.947-86.291 48.947s-75.72-36.543-86.291-48.947c-2.062-2.42-2.062-5.705 0-8.124 10.571-12.404 45.201-48.947 86.291-48.947s75.72 36.543 86.291 48.947z" fill="#e5eef8"/><circle cx="364.237" cy="148.777" fill="#65daf9" r="53.009"/><path d="m355.66 140.297c0-17.619 8.603-33.221 21.829-42.859-4.236-1.09-8.676-1.67-13.252-1.67-29.276 0-53.009 23.733-53.009 53.009s23.733 53.009 53.009 53.009c11.657 0 22.428-3.772 31.18-10.149-22.864-5.885-39.757-26.639-39.757-51.34z" fill="#1acff8"/><circle cx="364.237" cy="148.777" fill="#138fcd" r="22.6"/><path d="m482.65 128.361h-37.108c-5.945-5.883-13.535-12.638-22.387-18.896-19.896-14.066-39.719-21.198-58.919-21.198s-39.024 7.132-58.919 21.198c-8.852 6.258-16.442 13.013-22.387 18.896h-34.482c-15.833 0-28.714 12.881-28.714 28.715v63.822h-48.546v-37.762c0-9.752-7.934-17.686-17.686-17.686h-135.816c-9.752 0-17.686 7.934-17.686 17.686v95.729c0 9.752 7.934 17.686 17.686 17.686h39.629v79.774h-12.719c-4.142 0-7.5 3.358-7.5 7.5v14.814c0 13.486 10.972 24.458 24.458 24.458h358.134c4.142 0 7.5-3.358 7.5-7.5v-19.837c0-10.716-8.718-19.435-19.435-19.435h-3.687v-29.662h88.398c10.421 0 18.9-8.479 18.9-18.9v-170.687c.001-15.833-12.88-28.715-28.714-28.715zm13.715 28.715v135.502h-180.341v-8.969h106.915c4.142 0 7.5-3.358 7.5-7.5s-3.358-7.5-7.5-7.5h-106.915v-17.097c0-16.88-13.733-30.613-30.613-30.613h-25.676v-52.537h22.368c6.063 6.074 13.939 13.169 23.215 19.727 19.896 14.066 39.719 21.198 58.919 21.198s39.024-7.132 58.919-21.198c9.275-6.557 17.152-13.653 23.215-19.727h24.994v100.248h-18.425c-4.142 0-7.5 3.358-7.5 7.5s3.358 7.5 7.5 7.5h25.925c4.142 0 7.5-3.358 7.5-7.5v-115.249c0-4.142-3.358-7.5-7.5-7.5h-20.085c1.186-3.254 1.066-6.802-.343-10h24.214c7.562 0 13.714 6.153 13.714 13.715zm-169.332 219.249h-1.289-9.719v-29.662h11.008zm-8.305-227.548c0-24.267 19.092-44.155 43.044-45.44.82-.033 1.64-.069 2.465-.069s1.645.036 2.465.069c23.952 1.285 43.044 21.173 43.044 45.44s-19.092 44.155-43.044 45.44c-.82.033-1.64.069-2.465.069s-1.645-.036-2.465-.069c-23.952-1.285-43.044-21.174-43.044-45.44zm125.402 0c-4.32 4.992-12.723 14.005-23.82 22.701 2.851-7.015 4.435-14.675 4.435-22.701s-1.585-15.686-4.435-22.701c11.097 8.696 19.5 17.709 23.82 22.701zm-135.967-22.702c-2.851 7.015-4.435 14.675-4.435 22.702s1.585 15.686 4.435 22.702c-11.097-8.696-19.5-17.709-23.82-22.702 4.32-4.992 12.723-14.005 23.82-22.702zm-73.428 31.001c0-7.563 6.152-13.715 13.714-13.715h21.589c-1.409 3.198-1.529 6.746-.344 10h-17.46c-4.142 0-7.5 3.358-7.5 7.5v60.037h-10v-63.822zm-217.049 23.374h135.816c1.481 0 2.686 1.205 2.686 2.686v14.138h-141.188v-14.138c0-1.481 1.205-2.686 2.686-2.686zm-2.686 98.415v-66.591h141.188v66.591c0 1.481-1.205 2.686-2.686 2.686h-135.816c-1.481 0-2.686-1.205-2.686-2.686zm57.315 17.686h10v15.497c0 4.142 3.358 7.5 7.5 7.5s7.5-3.358 7.5-7.5v-15.497h56.187c9.752 0 17.686-7.934 17.686-17.686v-17.967h104.836v90.427h-178.709v-9.277c0-4.142-3.358-7.5-7.5-7.5s-7.5 3.358-7.5 7.5v16.777c0 4.142 3.358 7.5 7.5 7.5h193.709c4.142 0 7.5-3.358 7.5-7.5v-105.427c0-4.142-3.358-7.5-7.5-7.5h-112.336v-10h114.223c8.609 0 15.613 7.004 15.613 15.613v124.813h-228.709zm236.471 111.546h-247.232c-5.215 0-9.458-4.243-9.458-9.458v-7.314h12.719 243.709 12.719v7.314c0 5.215-4.243 9.458-9.458 9.458zm103.402-12.337v12.337h-77.848c1.225-2.911 1.904-6.107 1.904-9.458v-7.314h60.323 11.187c2.445 0 4.434 1.989 4.434 4.435zm-23.121-19.435h-47.034v-29.662h47.034zm103.398-44.662h-95.898-62.034-18.508v-24.085h180.341v20.185c-.001 2.151-1.75 3.9-3.901 3.9z"/><circle cx="365.55" cy="319.291" r="7.757"/><path d="m122.201 259.462v-27.433c0-6.255-5.089-11.344-11.344-11.344h-50.518c-6.255 0-11.344 5.089-11.344 11.344v27.433c0 6.255 5.089 11.344 11.344 11.344h50.518c6.255 0 11.344-5.089 11.344-11.344zm-15-3.656h-43.206v-20.121h43.206z"/><path d="m394.336 148.777c0-16.597-13.502-30.1-30.1-30.1s-30.1 13.502-30.1 30.1 13.502 30.1 30.1 30.1 30.1-13.503 30.1-30.1zm-45.199 0c0-8.326 6.773-15.1 15.1-15.1s15.1 6.773 15.1 15.1-6.773 15.1-15.1 15.1-15.1-6.774-15.1-15.1z"/></svg>